<?xml version="1.0" standalone="no"?>
<!DOCTYPE svg PUBLIC "-//W3C//DTD SVG 20010904//EN"
 "http://www.w3.org/TR/2001/REC-SVG-20010904/DTD/svg10.dtd">
<svg version="1.0" xmlns="http://www.w3.org/2000/svg"
 width="2048.000000pt" height="2048.000000pt" viewBox="0 0 2048.000000 2048.000000"
 preserveAspectRatio="xMidYMid meet">
<metadata>
Created by potrace 1.11, written by Peter Selinger 2001-2013
</metadata>
<g transform="translate(0.000000,2048.000000) scale(0.100000,-0.100000)"
fill="#000000" stroke="none">
<path d="M9845 19479 c-209 -105 -384 -195 -389 -200 -6 -5 -16 -9 -23 -9 -6
0 -34 -13 -60 -28 -26 -16 -52 -30 -58 -31 -11 -4 -196 -95 -265 -131 -25 -13
-47 -25 -50 -25 -8 -2 -122 -59 -150 -75 -14 -8 -27 -15 -30 -15 -12 -2 -715
-357 -727 -367 -7 -6 -13 -7 -13 -4 0 4 -12 -1 -27 -12 -16 -11 -31 -20 -36
-20 -7 -1 -396 -194 -448 -223 -13 -7 -26 -14 -29 -14 -12 -2 -715 -357 -727
-367 -7 -6 -13 -7 -13 -4 0 4 -15 -3 -32 -16 -18 -13 -34 -22 -36 -20 -2 2
-150 -70 -242 -118 -25 -13 -47 -25 -50 -25 -6 -1 -843 -420 -910 -455 -25
-13 -47 -25 -50 -25 -13 -3 -575 -287 -587 -296 -7 -6 -13 -8 -13 -4 0 4 -6 2
-14 -4 -7 -6 -81 -44 -162 -84 -82 -40 -160 -80 -174 -87 -14 -8 -27 -15 -30
-15 -6 -1 -822 -410 -890 -445 -25 -13 -47 -24 -50 -25 -5 -1 -832 -415 -910
-456 -25 -13 -47 -24 -50 -24 -6 -1 -204 -101 -270 -135 -25 -13 -47 -24 -50
-25 -11 -2 -496 -247 -504 -256 -6 -5 -16 -9 -23 -9 -6 0 -34 -13 -60 -28 -26
-16 -51 -29 -56 -30 -8 -1 -422 -208 -467 -232 -14 -8 -27 -15 -30 -15 -4 -1
-232 -115 -305 -153 l-25 -13 2 -4727 3 -4727 1695 -846 c932 -466 1911 -954
2175 -1085 264 -131 488 -245 498 -253 9 -8 17 -12 17 -9 0 3 1133 -561 2517
-1253 1385 -693 2522 -1259 2528 -1259 5 0 1398 694 3095 1542 1697 847 3267
1631 3490 1742 223 111 407 204 408 209 2 4 9 7 16 7 7 0 555 272 1217 603
l1204 604 0 4728 0 4728 -4705 2353 c-2588 1294 -4714 2353 -4725 2353 -11 0
-191 -85 -400 -190z m-7995 -5190 c139 -103 403 -310 420 -328 3 -4 46 -40 95
-81 50 -41 92 -77 95 -80 3 -3 41 -36 85 -75 44 -38 85 -74 91 -80 219 -199
378 -351 578 -551 147 -147 449 -460 486 -504 12 -14 43 -47 69 -75 26 -27 85
-93 131 -145 47 -52 91 -102 100 -110 8 -8 44 -49 80 -90 36 -41 72 -82 80
-90 8 -9 26 -30 40 -46 14 -16 68 -79 120 -140 140 -163 200 -234 389 -459 9
-11 86 -105 171 -210 85 -104 159 -195 165 -201 5 -7 22 -27 37 -45 14 -19 50
-64 80 -101 29 -36 93 -117 143 -180 49 -62 92 -115 95 -118 3 -3 21 -25 40
-50 19 -25 68 -88 110 -140 41 -52 78 -99 83 -105 4 -5 15 -20 25 -32 9 -12
50 -64 90 -115 39 -51 135 -174 213 -273 187 -240 159 -203 408 -525 122 -157
231 -296 242 -310 11 -14 64 -81 117 -149 79 -100 425 -535 477 -599 8 -10 41
-51 75 -92 34 -41 67 -82 73 -90 21 -27 301 -365 312 -376 5 -6 29 -33 52 -60
23 -27 51 -60 63 -74 12 -14 41 -47 64 -74 22 -26 52 -61 66 -76 14 -15 50
-55 80 -90 295 -338 710 -761 970 -990 173 -153 169 -149 313 -263 300 -238
598 -424 867 -540 111 -48 108 -47 185 -12 212 99 337 164 395 205 15 11 31
20 35 20 25 0 479 331 610 445 37 33 122 106 155 135 218 187 717 696 993
1014 36 42 63 72 127 146 36 41 67 77 70 80 5 4 154 181 199 235 9 11 52 63
96 116 44 52 93 111 108 130 82 98 559 696 726 909 105 135 197 252 204 260 7
8 41 53 77 100 36 47 67 87 70 90 3 3 21 25 40 50 19 25 38 47 42 48 5 2 8 8
8 13 0 5 8 17 18 27 9 11 26 32 37 47 11 16 25 33 30 39 6 6 43 54 83 107 39
52 80 104 89 115 18 20 30 35 133 169 30 39 58 75 62 80 5 6 115 145 245 310
231 293 641 805 652 815 3 3 24 28 46 55 22 28 44 55 50 61 5 6 26 30 45 55
19 24 62 75 95 114 33 38 107 126 164 195 57 69 109 130 115 135 6 6 51 57
101 115 49 58 92 107 95 110 3 3 35 39 70 80 36 41 70 80 75 86 26 29 173 190
195 214 14 15 68 73 120 130 317 345 750 773 1051 1041 15 13 44 40 65 59 22
19 68 60 104 90 36 30 67 57 70 60 83 84 526 429 750 584 69 47 130 89 135 93
53 40 188 123 193 119 3 -3 1 -6 -4 -6 -6 0 -19 -8 -30 -17 -11 -10 -44 -38
-74 -63 -199 -162 -511 -479 -721 -731 -34 -41 -65 -76 -68 -79 -7 -5 -150
-180 -246 -300 -57 -71 -349 -459 -446 -592 -306 -421 -767 -1120 -1151 -1748
-135 -220 -368 -610 -368 -616 0 -3 -8 -17 -19 -32 -10 -15 -80 -135 -156
-267 -76 -132 -152 -265 -170 -295 -17 -30 -35 -62 -38 -70 -4 -8 -11 -22 -17
-30 -20 -31 -123 -214 -216 -387 -21 -38 -40 -72 -44 -78 -4 -5 -33 -59 -65
-120 -32 -60 -61 -114 -65 -120 -4 -5 -35 -64 -70 -130 -35 -66 -66 -124 -70
-130 -4 -5 -31 -55 -60 -110 -29 -55 -82 -154 -118 -220 -35 -66 -81 -151
-102 -190 -21 -38 -67 -124 -102 -190 -64 -118 -92 -170 -178 -330 -24 -44
-69 -127 -100 -185 -31 -58 -76 -141 -100 -185 -24 -44 -46 -84 -50 -90 -4 -5
-28 -48 -52 -95 -55 -102 -93 -173 -142 -260 -20 -36 -52 -94 -71 -130 -19
-36 -39 -72 -45 -80 -9 -15 -87 -154 -125 -225 -12 -22 -64 -114 -115 -205
-51 -91 -102 -181 -113 -200 -10 -19 -34 -60 -52 -90 -18 -30 -44 -75 -57
-100 -115 -207 -513 -868 -686 -1140 -109 -170 -437 -657 -533 -790 -204 -284
-458 -602 -622 -784 -40 -43 -85 -93 -100 -110 -107 -117 -350 -353 -438 -424
-18 -15 -49 -41 -69 -58 -19 -16 -73 -59 -120 -94 -47 -35 -101 -75 -120 -90
-85 -64 -259 -167 -398 -235 -179 -88 -208 -98 -251 -84 -151 50 -515 261
-696 404 -21 17 -66 52 -99 78 -206 163 -501 454 -706 697 -30 36 -57 67 -61
70 -5 5 -187 230 -254 315 -16 21 -34 45 -39 54 -5 9 -12 18 -16 21 -33 23
-517 723 -689 995 -99 157 -115 182 -147 232 -19 29 -34 55 -34 57 0 3 -17 31
-37 63 -21 32 -43 67 -50 78 -7 11 -38 63 -70 115 -32 52 -66 111 -77 130 -10
19 -26 46 -36 60 -15 21 -233 394 -293 500 -10 19 -37 67 -59 105 -21 39 -43
77 -48 85 -13 21 -73 126 -102 180 -14 25 -35 63 -48 85 -92 162 -150 268
-155 285 -3 11 -11 20 -16 20 -5 0 -9 4 -9 8 0 7 -116 223 -240 447 -15 28
-38 70 -51 93 -13 24 -35 65 -49 90 -14 26 -49 90 -77 142 -28 52 -63 118 -78
145 -26 48 -55 102 -122 225 -17 30 -65 120 -108 200 -43 80 -92 172 -110 205
-18 33 -49 92 -70 130 -20 39 -50 93 -65 120 -15 28 -43 79 -62 115 -46 86
-253 469 -295 545 -17 33 -42 78 -53 100 -12 22 -27 49 -33 60 -7 11 -34 61
-61 110 -235 433 -757 1323 -1071 1828 -11 17 -29 47 -40 65 -11 18 -38 61
-60 95 -22 34 -87 136 -145 227 -212 336 -606 914 -833 1224 -20 28 -45 62
-55 76 -16 24 -153 206 -238 316 -67 88 -178 228 -189 240 -5 6 -26 30 -45 54
-19 24 -39 48 -45 54 -5 6 -32 38 -60 71 -27 33 -52 62 -55 65 -3 3 -32 36
-65 74 -201 233 -474 508 -648 653 -33 26 -73 61 -90 76 -53 47 316 -202 493
-334z"/>
</g>
</svg>
