<?xml version="1.0" encoding="utf-8"?>
<!-- Generator: Adobe Illustrator 18.0.0, SVG Export Plug-In . SVG Version: 6.00 Build 0)  -->
<!DOCTYPE svg PUBLIC "-//W3C//DTD SVG 1.1//EN" "http://www.w3.org/Graphics/SVG/1.1/DTD/svg11.dtd">
<svg version="1.1" id="Layer_1" xmlns="http://www.w3.org/2000/svg" xmlns:xlink="http://www.w3.org/1999/xlink" x="0px" y="0px"
	 viewBox="0 0 100 100" enable-background="new 0 0 100 100" xml:space="preserve">
<g>
	<path fill="#BCBBBB" d="M27.7,57.8h-4.2v-2.4h-2.4v2.4H4.4v-9.6c4.6,0,8.4-3.8,8.4-8.4S9,31.4,4.4,31.4v-9.6h16.8v2.4h2.4v-2.4
		h52.8v9.6c-4.2,0-7.7,3.1-8.3,7.2h2.4c0.6-2.8,3-4.8,5.9-4.8h2.4V19.4H2v14.4h2.4c3.3,0,6,2.7,6,6c0,3.3-2.7,6-6,6H2v14.4h26.4
		C28.4,59.4,28.2,58.5,27.7,57.8z"/>
	<rect x="21.2" y="26.6" fill="#BCBBBB" width="2.4" height="4.8"/>
	<rect x="21.2" y="33.8" fill="#BCBBBB" width="2.4" height="4.8"/>
	<path fill="#BCBBBB" d="M95.6,54.2H98V39.8H21.2v14.4h2.4c3.3,0,6,2.7,6,6s-2.7,6-6,6h-2.4v14.4H98V66.2h-2.4c-3.3,0-6-2.7-6-6
		S92.3,54.2,95.6,54.2z M87.2,60.2c0,4.6,3.8,8.4,8.4,8.4l0,0v9.6H42.8v-2.4h-2.4v2.4H23.6v-9.6c4.6,0,8.4-3.8,8.4-8.4
		s-3.8-8.4-8.4-8.4v-9.6h16.8v2.4h2.4v-2.4h52.8v9.6C91,51.8,87.2,55.6,87.2,60.2L87.2,60.2z"/>
	<rect x="40.4" y="54.2" fill="#BCBBBB" width="2.4" height="4.8"/>
	<rect x="40.4" y="61.4" fill="#BCBBBB" width="2.4" height="4.8"/>
	<rect x="40.4" y="68.6" fill="#BCBBBB" width="2.4" height="4.8"/>
	<rect x="40.4" y="47" fill="#BCBBBB" width="2.4" height="4.8"/>
</g>
<g>
</g>
<g>
</g>
<g>
</g>
<g>
</g>
<g>
</g>
<g>
</g>
</svg>
