<?xml version="1.0" encoding="utf-8"?>
<!-- Generator: Adobe Illustrator 18.0.0, SVG Export Plug-In . SVG Version: 6.00 Build 0)  -->
<!DOCTYPE svg PUBLIC "-//W3C//DTD SVG 1.1//EN" "http://www.w3.org/Graphics/SVG/1.1/DTD/svg11.dtd">
<svg version="1.1" id="Layer_1" xmlns="http://www.w3.org/2000/svg" xmlns:xlink="http://www.w3.org/1999/xlink" x="0px" y="0px"
	 viewBox="0 0 100 100" enable-background="new 0 0 100 100" xml:space="preserve">
<g>
	<g>
		<path fill="#BCBBBB" d="M97,10.9h-9.7V9.4c0-0.9-0.6-1.5-1.5-1.5h-5.6V6.6c0-2.9-2.3-5.2-5.2-5.2c-2.9,0-5.3,2.3-5.3,5.2v1.2h-5.6
			c-0.9,0-1.5,0.6-1.5,1.5v1.4h-9.7c-0.9,0-1.5,0.6-1.5,1.5v26.1H14.2c-1.1,0-2.1,0.5-2.9,1.1l-7.6,6.7c-1.4,1.4-2.3,2.6-2.3,4.2V94
			c0,2.6,2,4.5,4.4,4.5h61.4c2.4,0,4.4-2,4.4-4.4V72.6H97c0.9,0,1.5-0.6,1.5-1.5V12.4C98.5,11.5,97.9,10.9,97,10.9z M65.6,10.9h5.6
			c0.9,0,1.5-0.6,1.5-1.5V6.6c0-1.2,1.1-2.1,2.3-2.1s2.1,0.9,2.1,2.1v2.7c0,0.9,0.6,1.5,1.5,1.5h5.6v1.4l0,0l0,0v2.9H65.6V10.9z
			 M13.3,41.8c0.3-0.3,0.6-0.3,0.9-0.3h37.1v4.4H8.8L13.3,41.8z M68.6,87.3h-2.9c-0.9,0-1.5,0.6-1.5,1.5s0.6,1.5,1.5,1.5h2.9V94
			c0,0.8-0.6,1.4-1.4,1.4H5.9c-0.8,0.2-1.4-0.5-1.4-1.2v-3.6h2.9c0.9,0,1.5-0.6,1.5-1.5s-0.6-1.5-1.5-1.5H4.5V50.3
			c0-0.8,0.6-1.4,1.4-1.4h45.5v22.1c0,0.9,0.6,1.5,1.5,1.5h15.8C68.6,72.6,68.6,87.3,68.6,87.3z M95.5,69.6c-11.4,0-27.9,0-41.1,0
			V13.9h8.2v2.9c0,0.9,0.6,1.5,1.5,1.5h21.7c0.9,0,1.5-0.6,1.5-1.5v-2.9h8.2V69.6z"/>
	</g>
	<g>
		<path fill="#BCBBBB" d="M88.4,58.6H61.7c-0.9,0-1.5,0.6-1.5,1.5c0,0.9,0.6,1.5,1.5,1.5h26.7c0.9,0,1.5-0.6,1.5-1.5
			C89.9,59.4,89.1,58.6,88.4,58.6z"/>
	</g>
	<g>
		<path fill="#BCBBBB" d="M88.4,47.9H61.7c-0.9,0-1.5,0.6-1.5,1.5c0,0.9,0.6,1.5,1.5,1.5h26.7c0.9,0,1.5-0.6,1.5-1.5
			C89.9,48.5,89.1,47.9,88.4,47.9z"/>
	</g>
	<g>
		<path fill="#BCBBBB" d="M88.4,37H61.7c-0.9,0-1.5,0.6-1.5,1.5c0,0.9,0.6,1.5,1.5,1.5h26.7c0.9,0,1.5-0.6,1.5-1.5
			C89.9,37.6,89.1,37,88.4,37z"/>
	</g>
	<g>
		<path fill="#BCBBBB" d="M61.7,26.2c-0.9,0-1.5,0.6-1.5,1.5s0.6,1.5,1.5,1.5h26.7c0.9,0,1.5-0.6,1.5-1.5s-0.6-1.5-1.5-1.5H61.7z"/>
	</g>
</g>
<g>
</g>
<g>
</g>
<g>
</g>
<g>
</g>
<g>
</g>
<g>
</g>
</svg>
