<?xml version="1.0" encoding="utf-8"?>
<!-- Generator: Adobe Illustrator 18.0.0, SVG Export Plug-In . SVG Version: 6.00 Build 0)  -->
<!DOCTYPE svg PUBLIC "-//W3C//DTD SVG 1.1//EN" "http://www.w3.org/Graphics/SVG/1.1/DTD/svg11.dtd">
<svg version="1.1" id="Layer_1" xmlns="http://www.w3.org/2000/svg" xmlns:xlink="http://www.w3.org/1999/xlink" x="0px" y="0px"
	 viewBox="0 0 100 100" enable-background="new 0 0 100 100" xml:space="preserve">
<g transform="translate(0,-952.36218)">
	<path fill="#BCBCBC" d="M50,971.8c-9,0-16.3,7.3-16.3,16.3c0,5.5,2.7,10.3,6.9,13.3c-2.5,0.8-4.8,1.9-6.9,3.2
		c-1.8-2.3-4.1-4.1-6.8-5.3c2.7-2.2,4.4-5.6,4.4-9.3c0-6.6-5.4-12-12-12c-6.6,0-12,5.4-12,12c0,3.7,1.7,7.1,4.4,9.3
		c-6.4,2.9-10.9,9.4-10.9,16.8c0,1.2,1,2.3,2.2,2.3s2.3-1,2.3-2.2c0,0,0,0,0-0.1c0-7.8,6.2-14,14-14c4.4,0,8.2,2,10.8,5.1
		c-6.6,5.6-10.8,14-10.8,23.4c0,1.2,1,2.3,2.2,2.3c1.2,0,2.3-1,2.3-2.2c0,0,0,0,0-0.1c0-8.6,4.1-16.2,10.5-21
		c0.1-0.1,0.2-0.2,0.4-0.3c4.3-3.1,9.6-5,15.4-5c5.7,0,11,1.8,15.3,4.9c0.2,0.1,0.3,0.3,0.5,0.4c6.3,4.8,10.4,12.4,10.4,21
		c0,1.2,1,2.3,2.2,2.3c1.2,0,2.3-1,2.3-2.2c0,0,0,0,0-0.1c0-9.3-4.2-17.7-10.8-23.4c2.6-3.1,6.4-5.1,10.8-5.1c7.8,0,14,6.2,14,14
		c0,1.2,1,2.3,2.2,2.3c1.2,0,2.3-1,2.3-2.2c0,0,0,0,0-0.1c0-7.5-4.4-13.9-10.8-16.8c2.7-2.2,4.4-5.5,4.4-9.3c0-6.6-5.4-12-12-12
		c-6.6,0-12,5.4-12,12c0,3.7,1.7,7.1,4.4,9.3c-2.7,1.2-5,3-6.8,5.3c-2.1-1.4-4.5-2.4-6.9-3.2c4.2-3,6.9-7.8,6.9-13.3
		C66.3,979.1,59,971.8,50,971.8L50,971.8z M50,976.3c6.5,0,11.8,5.3,11.8,11.8s-5.3,11.8-11.8,11.8s-11.8-5.3-11.8-11.8
		C38.2,981.5,43.5,976.3,50,976.3z M19.2,982.5c4.2,0,7.6,3.4,7.6,7.6c0,4.2-3.4,7.6-7.6,7.6c-4.2,0-7.6-3.4-7.6-7.6
		C11.7,985.8,15.1,982.5,19.2,982.5z M80.8,982.5c4.2,0,7.6,3.4,7.6,7.6c0,4.2-3.4,7.6-7.6,7.6c-4.2,0-7.6-3.3-7.6-7.6
		C73.2,985.9,76.6,982.5,80.8,982.5z"/>
</g>
<g>
</g>
<g>
</g>
<g>
</g>
<g>
</g>
<g>
</g>
<g>
</g>
</svg>
